{
  "accessors": [
    {
      "bufferView": 2,
      "componentType": 5126,
      "count": 1208,
      "max": [
        4.732065677642822,
        2.252678632736206,
        10.590885162353516
      ],
      "min": [
        -4.828049659729004,
        -3.102794885635376,
        4.017246723175049
      ],
      "type": "VEC3"
    },
    {
      "bufferView": 2,
      "byteOffset": 14496,
      "componentType": 5126,
      "count": 1208,
      "max": [
        0.9999768733978271,
        0.9999473094940186,
        0.9704003930091858
      ],
      "min": [
        -0.9984707832336426,
        -0.9984659552574158,
        -0.9473019242286682
      ],
      "type": "VEC3"
    },
    {
      "bufferView": 3,
      "componentType": 5126,
      "count": 1208,
      "max": [
        0.9999850988388062,
        0.9942299723625183,
        0.9998663067817688,
        1.0
      ],
      "min": [
        -0.8613020777702332,
        -0.9849146008491516,
        -0.9686839580535889,
        1.0
      ],
      "type": "VEC4"
    },
    {
      "bufferView": 1,
      "componentType": 5126,
      "count": 1208,
      "max": [
        0.9878362417221069,
        0.9936562776565552
      ],
      "min": [
        0.01687839813530445,
        0.005244992673397064
      ],
      "type": "VEC2"
    },
    {
      "bufferView": 1,
      "byteOffset": 9664,
      "componentType": 5126,
      "count": 1208,
      "max": [
        0.9878362417221069,
        0.9936562776565552
      ],
      "min": [
        0.01687839813530445,
        0.005244992673397064
      ],
      "type": "VEC2"
    },
    {
      "bufferView": 1,
      "byteOffset": 19328,
      "componentType": 5126,
      "count": 1208,
      "max": [
        0.9878362417221069,
        0.9936562776565552
      ],
      "min": [
        0.01687839813530445,
        0.005244992673397064
      ],
      "type": "VEC2"
    },
    {
      "bufferView": 0,
      "componentType": 5125,
      "count": 6240,
      "type": "SCALAR"
    }
  ],
  "asset": {
    "extras": {
      "author": "alnmathew (https://sketchfab.com/alnmathew)",
      "license": "CC-BY-4.0 (http://creativecommons.org/licenses/by/4.0/)",
      "source": "https://sketchfab.com/3d-models/female-tshirt-d32121811fc642a6b89b8daf05802ff1",
      "title": "Female tshirt"
    },
    "generator": "Sketchfab-16.74.0",
    "version": "2.0"
  },
  "bufferViews": [
    {
      "buffer": 0,
      "byteLength": 24960,
      "name": "floatBufferViews",
      "target": 34963
    },
    {
      "buffer": 0,
      "byteLength": 28992,
      "byteOffset": 24960,
      "byteStride": 8,
      "name": "floatBufferViews",
      "target": 34962
    },
    {
      "buffer": 0,
      "byteLength": 28992,
      "byteOffset": 53952,
      "byteStride": 12,
      "name": "floatBufferViews",
      "target": 34962
    },
    {
      "buffer": 0,
      "byteLength": 19328,
      "byteOffset": 82944,
      "byteStride": 16,
      "name": "floatBufferViews",
      "target": 34962
    }
  ],
  "buffers": [
    {
      "byteLength": 102272,
      "uri": "scene.bin"
    }
  ],
  "images": [
    {
      "uri": "textures/Material.011_baseColor.png"
    },
    {
      "uri": "textures/Material.011_metallicRoughness.png"
    },
    {
      "uri": "textures/Material.011_normal.png"
    }
  ],
  "materials": [
    {
      "doubleSided": true,
      "name": "Material.011",
      "normalTexture": {
        "index": 2
      },
      "pbrMetallicRoughness": {
        "baseColorTexture": {
          "index": 0
        },
        "metallicFactor": 0.0,
        "metallicRoughnessTexture": {
          "index": 1
        }
      }
    }
  ],
  "meshes": [
    {
      "name": "Plane.002_Material.011_0",
      "primitives": [
        {
          "attributes": {
            "NORMAL": 1,
            "POSITION": 0,
            "TANGENT": 2,
            "TEXCOORD_0": 3,
            "TEXCOORD_1": 4,
            "TEXCOORD_2": 5
          },
          "indices": 6,
          "material": 0,
          "mode": 4
        }
      ]
    }
  ],
  "nodes": [
    {
      "children": [
        1
      ],
      "matrix": [
        1.0,
        0.0,
        0.0,
        0.0,
        0.0,
        3.828568672208042e-16,
        -1.0,
        0.0,
        0.0,
        1.0,
        3.828568672208042e-16,
        0.0,
        0.0,
        0.0,
        0.0,
        1.0
      ],
      "name": "Sketchfab_model"
    },
    {
      "children": [
        2
      ],
      "matrix": [
        0.009999999776482582,
        0.0,
        0.0,
        0.0,
        0.0,
        0.0,
        0.009999999776482582,
        0.0,
        0.0,
        -0.009999999776482582,
        0.0,
        0.0,
        0.0,
        0.0,
        0.0,
        1.0
      ],
      "name": "7598787695874ee8bd9aa907b6a1df4a.fbx"
    },
    {
      "children": [
        3
      ],
      "name": "RootNode"
    },
    {
      "children": [
        4
      ],
      "matrix": [
        100.0,
        0.0,
        0.0,
        0.0,
        0.0,
        -1.629206793918314e-05,
        -99.99999999999868,
        0.0,
        0.0,
        99.99999999999868,
        -1.629206793918314e-05,
        0.0,
        0.0,
        0.0,
        0.0,
        1.0
      ],
      "name": "Plane.002"
    },
    {
      "mesh": 0,
      "name": "Plane.002_Material.011_0"
    }
  ],
  "samplers": [
    {
      "magFilter": 9729,
      "minFilter": 9987,
      "wrapS": 10497,
      "wrapT": 10497
    }
  ],
  "scene": 0,
  "scenes": [
    {
      "name": "Sketchfab_Scene",
      "nodes": [
        0
      ]
    }
  ],
  "textures": [
    {
      "sampler": 0,
      "source": 0
    },
    {
      "sampler": 0,
      "source": 1
    },
    {
      "sampler": 0,
      "source": 2
    }
  ]
}
