{
  "accessors": [
    {
      "bufferView": 2,
      "componentType": 5126,
      "count": 1289,
      "max": [
        0.9953250288963318,
        0.9148370027542114,
        0.9953240156173706
      ],
      "min": [
        -1.3151710033416748,
        -0.9654369950294495,
        -1.3151730298995972
      ],
      "type": "VEC3"
    },
    {
      "bufferView": 2,
      "byteOffset": 15468,
      "componentType": 5126,
      "count": 1289,
      "max": [
        1.0,
        1.0,
        1.0
      ],
      "min": [
        -0.9999987483024597,
        -1.0,
        -0.9999987483024597
      ],
      "type": "VEC3"
    },
    {
      "bufferView": 3,
      "componentType": 5126,
      "count": 1289,
      "max": [
        1.0,
        0.99751216173172,
        0.9999933838844299,
        1.0
      ],
      "min": [
        -0.9999167323112488,
        -0.997262179851532,
        -0.9999749660491943,
        1.0
      ],
      "type": "VEC4"
    },
    {
      "bufferView": 1,
      "componentType": 5126,
      "count": 1289,
      "max": [
        0.9724839925765991,
        0.9911810159683228
      ],
      "min": [
        0.012071000412106514,
        0.03264100104570389
      ],
      "type": "VEC2"
    },
    {
      "bufferView": 0,
      "componentType": 5125,
      "count": 6336,
      "type": "SCALAR"
    }
  ],
  "asset": {
    "extras": {
      "author": "anilai (https://sketchfab.com/anilai)",
      "license": "CC-BY-4.0 (http://creativecommons.org/licenses/by/4.0/)",
      "source": "https://sketchfab.com/3d-models/ceramic-white-mug-fdf735d1f8f6469d892a989b509cd245",
      "title": "Ceramic White Mug"
    },
    "generator": "Sketchfab-14.23.0",
    "version": "2.0"
  },
  "bufferViews": [
    {
      "buffer": 0,
      "byteLength": 25344,
      "name": "floatBufferViews",
      "target": 34963
    },
    {
      "buffer": 0,
      "byteLength": 10312,
      "byteOffset": 25344,
      "byteStride": 8,
      "name": "floatBufferViews",
      "target": 34962
    },
    {
      "buffer": 0,
      "byteLength": 30936,
      "byteOffset": 35656,
      "byteStride": 12,
      "name": "floatBufferViews",
      "target": 34962
    },
    {
      "buffer": 0,
      "byteLength": 20624,
      "byteOffset": 66592,
      "byteStride": 16,
      "name": "floatBufferViews",
      "target": 34962
    }
  ],
  "buffers": [
    {
      "byteLength": 87216,
      "uri": "scene.bin"
    }
  ],
  "images": [
    {
      "uri": "textures/Mug_White_baseColor.png"
    },
    {
      "uri": "textures/Mug_White_metallicRoughness.png"
    },
    {
      "uri": "textures/Mug_White_emissive.jpeg"
    },
    {
      "uri": "textures/Mug_White_normal.png"
    }
  ],
  "materials": [
    {
      "alphaMode": "BLEND",
      "doubleSided": true,
      "emissiveFactor": [
        1.0,
        1.0,
        1.0
      ],
      "emissiveTexture": {
        "index": 2
      },
      "name": "Mug_White",
      "normalTexture": {
        "index": 3
      },
      "occlusionTexture": {
        "index": 1
      },
      "pbrMetallicRoughness": {
        "baseColorTexture": {
          "index": 0
        },
        "metallicRoughnessTexture": {
          "index": 1
        }
      }
    }
  ],
  "meshes": [
    {
      "name": "defaultMaterial",
      "primitives": [
        {
          "attributes": {
            "NORMAL": 1,
            "POSITION": 0,
            "TANGENT": 2,
            "TEXCOORD_0": 3
          },
          "indices": 4,
          "material": 0,
          "mode": 4
        }
      ]
    }
  ],
  "nodes": [
    {
      "children": [
        1
      ],
      "matrix": [
        1.0,
        0.0,
        0.0,
        0.0,
        0.0,
        2.220446049250313e-16,
        -1.0,
        0.0,
        0.0,
        1.0,
        2.220446049250313e-16,
        0.0,
        0.0,
        0.0,
        0.0,
        1.0
      ],
      "name": "Sketchfab_model"
    },
    {
      "children": [
        2
      ],
      "matrix": [
        1.0,
        0.0,
        0.0,
        0.0,
        0.0,
        -4.371139006309477e-08,
        0.999999999999999,
        0.0,
        0.0,
        -0.999999999999999,
        -4.371139006309477e-08,
        0.0,
        0.0,
        0.0,
        0.0,
        1.0
      ],
      "name": "Collada visual scene group"
    },
    {
      "children": [
        3
      ],
      "matrix": [
        4.996541,
        0.0,
        -4.996541,
        0.0,
        0.0,
        8.170314,
        0.0,
        0.0,
        4.996541,
        0.0,
        4.996541,
        0.0,
        0.0,
        8.170314,
        0.0,
        1.0
      ],
      "name": "Mug"
    },
    {
      "mesh": 0,
      "name": "defaultMaterial"
    }
  ],
  "samplers": [
    {
      "magFilter": 9729,
      "minFilter": 9987,
      "wrapS": 10497,
      "wrapT": 10497
    }
  ],
  "scene": 0,
  "scenes": [
    {
      "name": "Sketchfab_Scene",
      "nodes": [
        0
      ]
    }
  ],
  "textures": [
    {
      "sampler": 0,
      "source": 0
    },
    {
      "sampler": 0,
      "source": 1
    },
    {
      "sampler": 0,
      "source": 2
    },
    {
      "sampler": 0,
      "source": 3
    }
  ]
}
